<?xml version="1.0" encoding="UTF-8"?>
<!-- Generated by jsxcad -->
<!DOCTYPE svg PUBLIC "-//W3C//DTD SVG 1.1 Tiny//EN" "http://www.w3.org/Graphics/SVG/1.1/DTD/svg11-tiny.dtd">
<svg viewBox="-250 -250 500 500" width="500" height="500" xmlns="http://www.w3.org/2000/svg"><path d="M120.61101565157566,127.8568619055707L135.2806879474036,111.19572042553467L143.16877382210254,102.00247440636674z" style="fill:rgb(221,44,149)"/><path d="M156.03609775652345,81.53310440326167L164.429385235914,60.704454610686795L170.3767122250977,43.46824299403539z" style="fill:rgb(244,82,151)"/><path d="M16.667276000698696,174.55502526586352L38.898613900042626,171.51637030078174L31.13363424450017,172.0761800699719z" style="fill:rgb(143,3,150)"/><path d="M-9.838768476864468,-175.54160557938246L-27.675230438030226,-173.15620045277794L-38.85348873331217,-170.91226450666008z" style="fill:rgb(109,251,151)"/><path d="M-157.32867168240256,-76.82961367122844L-165.33857798664394,-60.195331827016894L-155.9059212444277,-79.01643385456386z" style="fill:rgb(14,182,149)"/><path d="M128.27203856960023,-120.12059016531165L114.16436077067219,-133.19425404485975L95.95205706330174,-147.26867999121455z" style="fill:rgb(207,223,153)"/><path d="M102.93236486470065,142.77207050850205L120.61101565157566,127.8568619055707L126.17643165229708,121.29955755183015z" style="fill:rgb(208,32,154)"/><path d="M95.95205706330174,-147.26867999121455L79.83174345020709,-156.2965184770342L59.74670010677514,-165.16222528265473z" style="fill:rgb(183,239,154)"/><path d="M-127.85845648473965,-120.23350020476305L-139.68126276117468,-106.93658176857248L-128.3099939057578,-118.0592255862936z" style="fill:rgb(35,212,152)"/><path d="M153.72870487142094,-84.8573499330563L143.02298575049755,-101.81417058805445L128.27203856960023,-120.12059016531165z" style="fill:rgb(228,200,155)"/><path d="M-157.32867168240256,-76.82961367122844L-155.9059212444277,-79.01643385456386L-149.13592957498156,-93.08500674407816z" style="fill:rgb(14,182,149)"/><path d="M38.898613900042626,171.51637030078174L61.26473331158595,165.03902806280968L57.13126410934422,164.53909568065123z" style="fill:rgb(161,7,154)"/><path d="M170.3767122250977,43.46824299403539L174.48121984813707,21.12060505994892L175.50015646134335,0.4210476757066162z" style="fill:rgb(250,111,156)"/><path d="M82.89269716644841,155.33449781595525L102.93236486470065,142.77207050850205L105.6310318279382,138.62318476368176z" style="fill:rgb(193,22,156)"/><path d="M169.93658412097147,-43.63173941648777L163.75806788134344,-63.769642886177635L153.72870487142094,-84.8573499330563z" style="fill:rgb(242,173,157)"/><path d="M-41.58736205930629,170.63691067403906L-19.175370683292893,175.07328399189709L-33.91955207063955,170.47365813479948z" style="fill:rgb(99,5,154)"/><path d="M16.667276000698696,174.55502526586352L31.13363424450017,172.0761800699719L5.36347896351019,175.6024976849814z" style="fill:rgb(143,3,150)"/><path d="M61.26473331158595,165.03902806280968L82.89269716644841,155.33449781595525L82.30580333736773,153.24005184715546z" style="fill:rgb(177,14,157)"/><path d="M120.61101565157566,127.8568619055707L143.16877382210254,102.00247440636674L126.17643165229708,121.29955755183015z" style="fill:rgb(221,44,149)"/><path d="M175.50015646134335,0.4210476757066162L174.48795951001847,-21.65137434541044L169.93658412097147,-43.63173941648777z" style="fill:rgb(250,142,158)"/><path d="M59.74670010677514,-165.16222528265473L43.091626284106106,-170.43360542401246L22.907358309909917,-173.55111435522804z" style="fill:rgb(156,247,157)"/><path d="M7.174481253715331,-175.69688165357883L-9.838768476864468,-175.54160557938246L-24.687276334557506,-172.8020557946113z" style="fill:rgb(120,251,157)"/><path d="M-127.85845648473965,-120.23350020476305L-128.3099939057578,-118.0592255862936L-118.93688882799847,-128.61213098856166z" style="fill:rgb(35,212,152)"/><path d="M-41.58736205930629,170.63691067403906L-33.91955207063955,170.47365813479948L-58.61644313816002,165.60975335390012z" style="fill:rgb(99,5,154)"/><path d="M-9.838768476864468,-175.54160557938246L-38.85348873331217,-170.91226450666008L-24.687276334557506,-172.8020557946113z" style="fill:rgb(109,251,151)"/><path d="M156.03609775652345,81.53310440326167L170.3767122250977,43.46824299403539L161.1275340199378,66.38252805383866z" style="fill:rgb(244,82,151)"/><path d="M143.16877382210254,102.00247440636674L156.03609775652345,81.53310440326167L161.1275340199378,66.38252805383866z" style="fill:rgb(234,67,161)"/><path d="M-174.48795986390158,-21.65137650167997L-175.56936958548647,-3.440386746080001L-170.83323980436433,-27.59658055856134z" style="fill:rgb(4,144,157)"/><path d="M-139.68126276117468,-106.93658176857248L-149.13592957498156,-93.08500674407816L-135.74344142771528,-107.12290033876386z" style="fill:rgb(29,202,158)"/><path d="M-174.6860589623614,19.922651388615137L-172.30351114571812,13.734934842549233L-175.56936958548647,-3.440386746080001z" style="fill:rgb(4,115,157)"/><path d="M38.898613900042626,171.51637030078174L57.13126410934422,164.53909568065123L31.13363424450017,172.0761800699719z" style="fill:rgb(161,7,154)"/><path d="M-174.48795986390158,-21.65137650167997L-170.83323980436433,-27.59658055856134L-169.93658412097147,-43.63173941648766z" style="fill:rgb(4,144,157)"/><path d="M-174.6860589623614,19.922651388615137L-171.18756324252342,38.718286276034604L-172.30351114571812,13.734934842549233z" style="fill:rgb(4,115,157)"/><path d="M102.93236486470065,142.77207050850205L126.17643165229708,121.29955755183015L105.6310318279382,138.62318476368176z" style="fill:rgb(208,32,154)"/><path d="M-164.79609545573422,61.58701219993237L-162.86785867211202,55.85000911711563L-171.18756324252342,38.718286276034604z" style="fill:rgb(11,85,159)"/><path d="M128.27203856960023,-120.12059016531165L95.95205706330174,-147.26867999121455L108.83681629283896,-135.27294734458312z" style="fill:rgb(207,223,153)"/><path d="M-80.01710428089604,156.78431302471714L-58.61644313816002,165.60975335390012L-74.5801215638378,154.97885331032728z" style="fill:rgb(72,17,159)"/><path d="M95.95205706330174,-147.26867999121455L59.74670010677514,-165.16222528265473L73.94129720110543,-157.1726267806702z" style="fill:rgb(183,239,154)"/><path d="M-165.33857798664394,-60.195331827016894L-169.93658412097147,-43.63173941648766L-159.71250890554833,-65.09822600738308z" style="fill:rgb(12,171,159)"/><path d="M-164.79609545573422,61.58701219993237L-156.09493051938227,79.71982631165334L-162.86785867211202,55.85000911711563z" style="fill:rgb(11,85,159)"/><path d="M61.26473331158595,165.03902806280968L82.30580333736773,153.24005184715546L57.13126410934422,164.53909568065123z" style="fill:rgb(177,14,157)"/><path d="M82.89269716644841,155.33449781595525L105.6310318279382,138.62318476368176L82.30580333736773,153.24005184715546z" style="fill:rgb(193,22,156)"/><path d="M-80.01710428089604,156.78431302471714L-74.5801215638378,154.97885331032728L-97.22540030132555,145.71329400723246z" style="fill:rgb(72,17,159)"/><path d="M153.72870487142094,-84.8573499330563L128.27203856960023,-120.12059016531165L138.36161670977438,-104.03063984451889z" style="fill:rgb(228,200,155)"/><path d="M-67.89950336760332,-162.12486940494244L-82.0553665662008,-155.48046099804833L-79.75881414998935,-152.1510263406935z" style="fill:rgb(74,237,163)"/><path d="M-165.33857798664394,-60.195331827016894L-159.71250890554833,-65.09822600738308L-155.9059212444277,-79.01643385456386z" style="fill:rgb(12,171,159)"/><path d="M22.907358309909917,-173.55111435522804L7.174481253715331,-175.69688165357883L-11.25271853788878,-172.90394086927338z" style="fill:rgb(131,249,164)"/><path d="M-139.68126276117468,-106.93658176857248L-135.74344142771528,-107.12290033876386L-128.3099939057578,-118.0592255862936z" style="fill:rgb(29,202,158)"/><path d="M-144.7151349251076,100.22017562429804L-142.37308378194717,95.47904961401852L-156.09493051938227,79.71982631165334z" style="fill:rgb(25,58,161)"/><path d="M-82.0553665662008,-155.48046099804833L-95.50032628034083,-147.54896807856338L-89.22313881782786,-146.56384083738354z" style="fill:rgb(66,233,164)"/><path d="M-19.175370683292893,175.07328399189709L5.36347896351019,175.6024976849814L-6.745923865476407,171.00763662852606z" style="fill:rgb(117,5,163)"/><path d="M-144.7151349251076,100.22017562429804L-130.80364058972376,116.35949079120182L-142.37308378194717,95.47904961401852z" style="fill:rgb(25,58,161)"/><path d="M170.3767122250977,43.46824299403539L175.50015646134335,0.4210476757066162L171.11659193831272,24.002707820032196z" style="fill:rgb(250,111,156)"/><path d="M-53.37964512611241,-167.31568170388041L-67.89950336760332,-162.12486940494244L-69.7894944708251,-156.82801247462754z" style="fill:rgb(83,241,165)"/><path d="M-115.61433211456314,132.79351320803903L-97.22540030132555,145.71329400723246L-112.04425600156175,129.41948543681139z" style="fill:rgb(46,34,161)"/><path d="M7.174481253715331,-175.69688165357883L-24.687276334557506,-172.8020557946113L-11.25271853788878,-172.90394086927338z" style="fill:rgb(120,251,157)"/><path d="M-115.61433211456314,132.79351320803903L-112.04425600156175,129.41948543681139L-130.80364058972376,116.35949079120182z" style="fill:rgb(46,34,161)"/><path d="M59.74670010677514,-165.16222528265473L22.907358309909917,-173.55111435522804L36.89866109040808,-169.0794243855193z" style="fill:rgb(156,247,157)"/><path d="M-95.50032628034083,-147.54896807856338L-107.90038478452827,-138.52131660905764L-97.93179632308144,-140.21140835985736z" style="fill:rgb(58,228,165)"/><path d="M169.93658412097147,-43.63173941648777L153.72870487142094,-84.8573499330563L159.71252784183662,-65.09823535178977z" style="fill:rgb(242,173,157)"/><path d="M175.50015646134335,0.4210476757066162L169.93658412097147,-43.63173941648777L170.89029620018383,-21.20280977340602z" style="fill:rgb(250,142,158)"/><path d="M108.83681629283896,-135.27294734458312L95.95205706330174,-147.26867999121455L73.94129720110543,-157.1726267806702z" style="fill:rgb(191,230,167)"/><path d="M-38.85348873331217,-170.91226450666008L-53.37964512611241,-167.31568170388041L-59.57685392128014,-160.4702159260638z" style="fill:rgb(92,243,167)"/><path d="M161.1275340199378,66.38252805383866L170.3767122250977,43.46824299403539L171.11659193831272,24.002707820032196z" style="fill:rgb(243,95,169)"/><path d="M126.17643165229708,121.29955755183015L143.16877382210254,102.00247440636674L146.8535309264755,88.99919467780184z" style="fill:rgb(222,53,169)"/><path d="M138.36161670977438,-104.03063984451889L128.27203856960023,-120.12059016531165L108.83681629283896,-135.27294734458312z" style="fill:rgb(214,211,169)"/><path d="M73.94129720110543,-157.1726267806702L59.74670010677514,-165.16222528265473L36.89866109040808,-169.0794243855193z" style="fill:rgb(166,241,168)"/><path d="M-149.13592957498156,-93.08500674407816L-155.9059212444277,-79.01643385456386L-140.99119767704178,-96.08460858396158z" style="fill:rgb(25,193,166)"/><path d="M-19.175370683292893,175.07328399189709L-6.745923865476407,171.00763662852606L-33.91955207063955,170.47365813479948z" style="fill:rgb(117,5,163)"/><path d="M-107.90038478452827,-138.52131660905764L-118.93688882799847,-128.61213098856166L-105.64869864371529,-133.2572909191823z" style="fill:rgb(52,222,167)"/><path d="M143.16877382210254,102.00247440636674L161.1275340199378,66.38252805383866L146.8535309264755,88.99919467780184z" style="fill:rgb(234,67,161)"/><path d="M159.71252784183662,-65.09823535178977L153.72870487142094,-84.8573499330563L138.36161670977438,-104.03063984451889z" style="fill:rgb(231,186,171)"/><path d="M-24.687276334557506,-172.8020557946113L-38.85348873331217,-170.91226450666008L-49.390015870544154,-162.9753114851174z" style="fill:rgb(101,244,170)"/><path d="M-149.13592957498156,-93.08500674407816L-140.99119767704178,-96.08460858396158L-135.74344142771528,-107.12290033876386z" style="fill:rgb(25,193,166)"/><path d="M-82.0553665662008,-155.48046099804833L-89.22313881782786,-146.56384083738354L-79.75881414998935,-152.1510263406935z" style="fill:rgb(66,233,164)"/><path d="M171.11659193831272,24.002707820032196L175.50015646134335,0.4210476757066162L170.89029620018383,-21.20280977340602z" style="fill:rgb(246,126,173)"/><path d="M-67.89950336760332,-162.12486940494244L-79.75881414998935,-152.1510263406935L-69.7894944708251,-156.82801247462754z" style="fill:rgb(74,237,163)"/><path d="M5.36347896351019,175.6024976849814L31.13363424450017,172.0761800699719L21.897944980649253,167.03239076523747z" style="fill:rgb(136,7,170)"/><path d="M170.89029620018383,-21.20280977340602L169.93658412097147,-43.63173941648777L159.71252784183662,-65.09823535178977z" style="fill:rgb(242,157,173)"/><path d="M-95.50032628034083,-147.54896807856338L-97.93179632308144,-140.21140835985736L-89.22313881782786,-146.56384083738354z" style="fill:rgb(58,228,165)"/><path d="M22.907358309909917,-173.55111435522804L-11.25271853788878,-172.90394086927338L1.0775615495685296,-171.17254283258367z" style="fill:rgb(131,249,164)"/><path d="M-53.37964512611241,-167.31568170388041L-69.7894944708251,-156.82801247462754L-59.57685392128014,-160.4702159260638z" style="fill:rgb(83,241,165)"/><path d="M36.89866109040808,-169.0794243855193L22.907358309909917,-173.55111435522804L1.0775615495685296,-171.17254283258367z" style="fill:rgb(140,246,172)"/><path d="M-118.93688882799847,-128.61213098856166L-128.3099939057578,-118.0592255862936L-112.156363708151,-125.88184082302817z" style="fill:rgb(46,215,171)"/><path d="M105.6310318279382,138.62318476368176L126.17643165229708,121.29955755183015L127.93415309089343,110.39940091860997z" style="fill:rgb(208,40,174)"/><path d="M-175.56936958548647,-3.440386746080001L-167.81111085918664,-12.581434327300576L-170.83323980436433,-27.59658055856134z" style="fill:rgb(7,132,170)"/><path d="M-58.61644313816002,165.60975335390012L-33.91955207063955,170.47365813479948L-48.30866886503864,160.03275117391837z" style="fill:rgb(89,14,172)"/><path d="M-169.93658412097147,-43.63173941648766L-170.83323980436433,-27.59658055856134L-160.32853491495584,-51.724348036072364z" style="fill:rgb(12,159,171)"/><path d="M-175.56936958548647,-3.440386746080001L-172.30351114571812,13.734934842549233L-167.81111085918664,-12.581434327300576z" style="fill:rgb(7,132,170)"/><path d="M-107.90038478452827,-138.52131660905764L-105.64869864371529,-133.2572909191823L-97.93179632308144,-140.21140835985736z" style="fill:rgb(52,222,167)"/><path d="M-169.93658412097147,-43.63173941648766L-160.32853491495584,-51.724348036072364L-159.71250890554833,-65.09822600738308z" style="fill:rgb(12,159,171)"/><path d="M-38.85348873331217,-170.91226450666008L-59.57685392128014,-160.4702159260638L-49.390015870544154,-162.9753114851174z" style="fill:rgb(92,243,167)"/><path d="M-11.25271853788878,-172.90394086927338L-24.687276334557506,-172.8020557946113L-39.50185166070037,-164.26529505442699z" style="fill:rgb(109,244,175)"/><path d="M-171.18756324252342,38.718286276034604L-164.5280989796016,29.28671818983467L-172.30351114571812,13.734934842549233z" style="fill:rgb(10,103,172)"/><path d="M108.83681629283896,-135.27294734458312L73.94129720110543,-157.1726267806702L85.14402735979144,-146.55472749350213z" style="fill:rgb(191,230,167)"/><path d="M31.13363424450017,172.0761800699719L57.13126410934422,164.53909568065123L50.87043706988303,158.59188282268764z" style="fill:rgb(155,12,175)"/><path d="M5.36347896351019,175.6024976849814L21.897944980649253,167.03239076523747L-6.745923865476407,171.00763662852606z" style="fill:rgb(136,7,170)"/><path d="M-171.18756324252342,38.718286276034604L-162.86785867211202,55.85000911711563L-164.5280989796016,29.28671818983467z" style="fill:rgb(10,103,172)"/><path d="M-58.61644313816002,165.60975335390012L-48.30866886503864,160.03275117391837L-74.5801215638378,154.97885331032728z" style="fill:rgb(89,14,172)"/><path d="M73.94129720110543,-157.1726267806702L36.89866109040808,-169.0794243855193L48.692752743876284,-162.31213886845742z" style="fill:rgb(166,241,168)"/><path d="M126.17643165229708,121.29955755183015L146.8535309264755,88.99919467780184L127.93415309089343,110.39940091860997z" style="fill:rgb(222,53,169)"/><path d="M82.30580333736773,153.24005184715546L105.6310318279382,138.62318476368176L105.0118931120551,129.6693421133725z" style="fill:rgb(191,29,177)"/><path d="M-155.9059212444277,-79.01643385456386L-159.71250890554833,-65.09822600738308L-143.84589908261253,-85.24439150387911z" style="fill:rgb(23,183,174)"/><path d="M138.36161670977438,-104.03063984451889L108.83681629283896,-135.27294734458312L117.90359103215285,-120.49379005943976z" style="fill:rgb(214,211,169)"/><path d="M161.1275340199378,66.38252805383866L171.11659193831272,24.002707820032196L161.19636921682047,48.28618466490431z" style="fill:rgb(243,95,169)"/><path d="M-118.93688882799847,-128.61213098856166L-112.156363708151,-125.88184082302817L-105.64869864371529,-133.2572909191823z" style="fill:rgb(46,215,171)"/><path d="M57.13126410934422,164.53909568065123L82.30580333736773,153.24005184715546L78.96810651492132,145.96771962116316z" style="fill:rgb(173,20,178)"/><path d="M-128.3099939057578,-118.0592255862936L-135.74344142771528,-107.12290033876386L-117.26045018579427,-118.2800450480079z" style="fill:rgb(41,208,176)"/><path d="M-156.09493051938227,79.71982631165334L-149.68239583019323,70.6503672412185L-162.86785867211202,55.85000911711563z" style="fill:rgb(21,74,174)"/><path d="M-24.687276334557506,-172.8020557946113L-49.390015870544154,-162.9753114851174L-39.50185166070037,-164.26529505442699z" style="fill:rgb(101,244,170)"/><path d="M146.8535309264755,88.99919467780184L161.1275340199378,66.38252805383866L161.19636921682047,48.28618466490431z" style="fill:rgb(233,80,180)"/><path d="M-156.09493051938227,79.71982631165334L-142.37308378194717,95.47904961401852L-149.68239583019323,70.6503672412185z" style="fill:rgb(21,74,174)"/><path d="M-155.9059212444277,-79.01643385456386L-143.84589908261253,-85.24439150387911L-140.99119767704178,-96.08460858396158z" style="fill:rgb(23,183,174)"/><path d="M-97.22540030132555,145.71329400723246L-74.5801215638378,154.97885331032728L-88.81995977232313,138.72652309419288z" style="fill:rgb(62,28,176)"/><path d="M159.71252784183662,-65.09823535178977L138.36161670977438,-104.03063984451889L143.84589908261248,-85.24439150387921z" style="fill:rgb(231,186,171)"/><path d="M-97.22540030132555,145.71329400723246L-88.81995977232313,138.72652309419288L-112.04425600156175,129.41948543681139z" style="fill:rgb(62,28,176)"/><path d="M85.14402735979144,-146.55472749350213L73.94129720110543,-157.1726267806702L48.692752743876284,-162.31213886845742z" style="fill:rgb(173,234,180)"/><path d="M-130.80364058972376,116.35949079120182L-123.77328112487191,108.15952416459292L-142.37308378194717,95.47904961401852zM-130.80364058972376,116.35949079120182L-112.04425600156175,129.41948543681139L-123.77328112487191,108.15952416459292z" style="fill:rgb(39,49,176)"/><path d="M36.89866109040808,-169.0794243855193L1.0775615495685296,-171.17254283258367L11.936525318690444,-167.60352873970055z" style="fill:rgb(140,246,172)"/><path d="M117.90359103215285,-120.49379005943976L108.83681629283896,-135.27294734458312L85.14402735979144,-146.55472749350213z" style="fill:rgb(197,219,181)"/><path d="M1.0775615495685296,-171.17254283258367L-11.25271853788878,-172.90394086927338L-30.184744735165047,-164.289017901303z" style="fill:rgb(117,243,180)"/><path d="M171.11659193831272,24.002707820032196L170.89029620018383,-21.20280977340602L166.25034753451968,2.850112259554567z" style="fill:rgb(246,126,173)"/><path d="M170.89029620018383,-21.20280977340602L159.71252784183662,-65.09823535178977L160.45344651068118,-43.0265346427887z" style="fill:rgb(242,157,173)"/><path d="M31.13363424450017,172.0761800699719L50.87043706988303,158.59188282268764L21.897944980649253,167.03239076523747z" style="fill:rgb(155,12,175)"/><path d="M-128.3099939057578,-118.0592255862936L-117.26045018579427,-118.2800450480079L-112.156363708151,-125.88184082302817z" style="fill:rgb(41,208,176)"/><path d="M48.692752743876284,-162.31213886845742L36.89866109040808,-169.0794243855193L11.936525318690444,-167.60352873970055z" style="fill:rgb(148,241,181)"/><path d="M105.6310318279382,138.62318476368176L127.93415309089343,110.39940091860997L105.0118931120551,129.6693421133725z" style="fill:rgb(208,40,174)"/><path d="M-11.25271853788878,-172.90394086927338L-39.50185166070037,-164.26529505442699L-30.184744735165047,-164.289017901303z" style="fill:rgb(109,244,175)"/><path d="M143.84589908261248,-85.24439150387921L138.36161670977438,-104.03063984451889L117.90359103215285,-120.49379005943976z" style="fill:rgb(217,198,183)"/><path d="M-135.74344142771528,-107.12290033876386L-140.99119767704178,-96.08460858396158L-120.79496522339699,-110.65896744884643z" style="fill:rgb(38,201,181)"/><path d="M-33.91955207063955,170.47365813479948L-6.745923865476407,171.00763662852606L-19.282522135395784,160.47033733279568z" style="fill:rgb(108,13,182)"/><path d="M57.13126410934422,164.53909568065123L78.96810651492132,145.96771962116316L50.87043706988303,158.59188282268764z" style="fill:rgb(173,20,178)"/><path d="M82.30580333736773,153.24005184715546L105.0118931120551,129.6693421133725L78.96810651492132,145.96771962116316z" style="fill:rgb(191,29,177)"/><path d="M161.19636921682047,48.28618466490431L171.11659193831272,24.002707820032196L166.25034753451968,2.850112259554567z" style="fill:rgb(239,110,185)"/><path d="M-69.7894944708251,-156.82801247462754L-79.75881414998935,-152.1510263406935L-74.67128558425578,-143.55594331735702z" style="fill:rgb(77,229,184)"/><path d="M-79.75881414998935,-152.1510263406935L-89.22313881782786,-146.56384083738354L-79.6089288899361,-140.63593525055532z" style="fill:rgb(72,227,184)"/><path d="M160.45344651068118,-43.0265346427887L159.71252784183662,-65.09823535178977L143.84589908261248,-85.24439150387921z" style="fill:rgb(231,171,186)"/><path d="M-59.57685392128014,-160.4702159260638L-69.7894944708251,-156.82801247462754L-69.46562596923042,-145.9950563517498z" style="fill:rgb(82,231,185)"/><path d="M-170.83323980436433,-27.59658055856134L-157.59552389887287,-39.308807138077725L-160.32853491495584,-51.724348036072364z" style="fill:rgb(14,149,182)"/><path d="M-89.22313881782786,-146.56384083738354L-97.93179632308144,-140.21140835985736L-84.1385667960423,-137.31697520538194z" style="fill:rgb(67,223,185)"/><path d="M-170.83323980436433,-27.59658055856134L-167.81111085918664,-12.581434327300576L-157.59552389887287,-39.308807138077725z" style="fill:rgb(14,149,182)"/><path d="M166.25034753451968,2.850112259554567L170.89029620018383,-21.20280977340602L160.45344651068118,-43.0265346427887z" style="fill:rgb(239,141,187)"/><path d="M-135.74344142771528,-107.12290033876386L-120.79496522339699,-110.65896744884643L-117.26045018579427,-118.2800450480079z" style="fill:rgb(38,201,181)"/><path d="M-159.71250890554833,-65.09822600738308L-160.32853491495584,-51.724348036072364L-144.14931855864512,-74.91643904093321z" style="fill:rgb(23,174,183)"/><path d="M-33.91955207063955,170.47365813479948L-19.282522135395784,160.47033733279568L-48.30866886503864,160.03275117391837z" style="fill:rgb(108,13,182)"/><path d="M11.936525318690444,-167.60352873970055L1.0775615495685296,-171.17254283258367L-21.70565500834202,-163.02473656375452z" style="fill:rgb(123,240,186)"/><path d="M-49.390015870544154,-162.9753114851174L-59.57685392128014,-160.4702159260638L-64.13889131773557,-147.8839030256202z" style="fill:rgb(88,233,186)"/><path d="M127.93415309089343,110.39940091860997L146.8535309264755,88.99919467780184L145.8542185003689,72.34727526744494z" style="fill:rgb(220,65,188)"/><path d="M-172.30351114571812,13.734934842549233L-160.750442079112,0.8994821175039305L-167.81111085918664,-12.581434327300576z" style="fill:rgb(13,121,184)"/><path d="M-159.71250890554833,-65.09822600738308L-144.14931855864512,-74.91643904093321L-143.84589908261253,-85.24439150387911z" style="fill:rgb(23,174,183)"/><path d="M146.8535309264755,88.99919467780184L161.19636921682047,48.28618466490431L145.8542185003689,72.34727526744494z" style="fill:rgb(233,80,180)"/><path d="M1.0775615495685296,-171.17254283258367L-30.184744735165047,-164.289017901303L-21.70565500834202,-163.02473656375452z" style="fill:rgb(117,243,180)"/><path d="M85.14402735979144,-146.55472749350213L48.692752743876284,-162.31213886845742L57.8537933519011,-153.34490047734354z" style="fill:rgb(173,234,180)"/><path d="M-97.93179632308144,-140.21140835985736L-105.64869864371529,-133.2572909191823L-88.13022866275638,-133.6919029141504z" style="fill:rgb(63,220,187)"/><path d="M-172.30351114571812,13.734934842549233L-164.5280989796016,29.28671818983467L-160.750442079112,0.8994821175039305z" style="fill:rgb(13,121,184)"/><path d="M48.692752743876284,-162.31213886845742L11.936525318690444,-167.60352873970055L20.971752372997813,-162.23938282815095z" style="fill:rgb(148,241,181)"/><path d="M117.90359103215285,-120.49379005943976L85.14402735979144,-146.55472749350213L92.85580398254505,-133.48798575547298z" style="fill:rgb(197,219,181)"/><path d="M-39.50185166070037,-164.26529505442699L-49.390015870544154,-162.9753114851174L-58.841763725649955,-149.16730616753907z" style="fill:rgb(93,234,188)"/><path d="M-162.86785867211202,55.85000911711563L-152.21909157889647,42.61066962676825L-164.5280989796016,29.28671818983467z" style="fill:rgb(20,93,187)"/><path d="M-140.99119767704178,-96.08460858396158L-143.84589908261253,-85.24439150387911L-122.62811395007846,-103.2342293598961z" style="fill:rgb(37,194,187)"/><path d="M-105.64869864371529,-133.2572909191823L-112.156363708151,-125.88184082302817L-91.46706684921314,-129.86251620909695z" style="fill:rgb(59,216,189)"/><path d="M-6.745923865476407,171.00763662852606L21.897944980649253,167.03239076523747L11.412850129729552,156.09273772969917z" style="fill:rgb(128,16,189)"/><path d="M-162.86785867211202,55.85000911711563L-149.68239583019323,70.6503672412185L-152.21909157889647,42.61066962676825z" style="fill:rgb(20,93,187)"/><path d="M-74.5801215638378,154.97885331032728L-48.30866886503864,160.03275117391837L-61.7689848297638,143.7051578185645z" style="fill:rgb(80,25,188)"/><path d="M57.8537933519011,-153.34490047734354L48.692752743876284,-162.31213886845742L20.971752372997813,-162.23938282815095z" style="fill:rgb(154,234,190)"/><path d="M-79.75881414998935,-152.1510263406935L-79.6089288899361,-140.63593525055532L-74.67128558425578,-143.55594331735702z" style="fill:rgb(72,227,184)"/><path d="M-69.7894944708251,-156.82801247462754L-74.67128558425578,-143.55594331735702L-69.46562596923042,-145.9950563517498z" style="fill:rgb(77,229,184)"/><path d="M143.84589908261248,-85.24439150387921L117.90359103215285,-120.49379005943976L122.62812304696293,-103.2342293598962z" style="fill:rgb(217,198,183)"/><path d="M92.85580398254505,-133.48798575547298L85.14402735979144,-146.55472749350213L57.8537933519011,-153.34490047734354z" style="fill:rgb(178,224,191)"/><path d="M-30.184744735165047,-164.289017901303L-39.50185166070037,-164.26529505442699L-53.72536931292112,-149.8056645909978z" style="fill:rgb(98,233,191)"/><path d="M-89.22313881782786,-146.56384083738354L-84.1385667960423,-137.31697520538194L-79.6089288899361,-140.63593525055532z" style="fill:rgb(67,223,185)"/><path d="M-140.99119767704178,-96.08460858396158L-122.62811395007846,-103.2342293598961L-120.79496522339699,-110.65896744884643z" style="fill:rgb(37,194,187)"/><path d="M-59.57685392128014,-160.4702159260638L-69.46562596923042,-145.9950563517498L-64.13889131773557,-147.8839030256202z" style="fill:rgb(82,231,185)"/><path d="M-74.5801215638378,154.97885331032728L-61.7689848297638,143.7051578185645L-88.81995977232313,138.72652309419288z" style="fill:rgb(80,25,188)"/><path d="M-142.37308378194717,95.47904961401852L-131.7733742577056,82.45667715797278L-149.68239583019323,70.6503672412185z" style="fill:rgb(34,66,189)"/><path d="M105.0118931120551,129.6693421133725L127.93415309089343,110.39940091860997L125.49265444706347,95.19373839880502z" style="fill:rgb(205,51,194)"/><path d="M-97.93179632308144,-140.21140835985736L-88.13022866275638,-133.6919029141504L-84.1385667960423,-137.31697520538194z" style="fill:rgb(63,220,187)"/><path d="M11.936525318690444,-167.60352873970055L-21.70565500834202,-163.02473656375452L-14.320094456256736,-160.48292016870312z" style="fill:rgb(123,240,186)"/><path d="M-112.156363708151,-125.88184082302817L-117.26045018579427,-118.2800450480079L-94.04834401936732,-125.93746630125682z" style="fill:rgb(57,211,192)"/><path d="M-142.37308378194717,95.47904961401852L-123.77328112487191,108.15952416459292L-131.7733742577056,82.45667715797278z" style="fill:rgb(34,66,189)"/><path d="M161.19636921682047,48.28618466490431L166.25034753451968,2.850112259554567L155.8634550600935,27.704890582806563z" style="fill:rgb(239,110,185)"/><path d="M-49.390015870544154,-162.9753114851174L-64.13889131773557,-147.8839030256202L-58.841763725649955,-149.16730616753907z" style="fill:rgb(88,233,186)"/><path d="M20.971752372997813,-162.23938282815095L11.936525318690444,-167.60352873970055L-14.320094456256736,-160.48292016870312z" style="fill:rgb(129,236,193)"/><path d="M-112.04425600156175,129.41948543681139L-88.81995977232313,138.72652309419288L-100.66992130377423,117.10032066214667zM-112.04425600156175,129.41948543681139L-100.66992130377423,117.10032066214667L-123.77328112487191,108.15952416459292z" style="fill:rgb(55,43,190)"/><path d="M122.62812304696293,-103.2342293598962L117.90359103215285,-120.49379005943976L92.85580398254505,-133.48798575547298z" style="fill:rgb(200,207,194)"/><path d="M160.45344651068118,-43.0265346427887L143.84589908261248,-85.24439150387921L144.23845397419603,-64.22839989095786z" style="fill:rgb(231,171,186)"/><path d="M-6.745923865476407,171.00763662852606L11.412850129729552,156.09273772969917L-19.282522135395784,160.47033733279568z" style="fill:rgb(128,16,189)"/><path d="M-105.64869864371529,-133.2572909191823L-91.46706684921314,-129.86251620909695L-88.13022866275638,-133.6919029141504z" style="fill:rgb(59,216,189)"/><path d="M127.93415309089343,110.39940091860997L145.8542185003689,72.34727526744494L125.49265444706347,95.19373839880502z" style="fill:rgb(220,65,188)"/><path d="M145.8542185003689,72.34727526744494L161.19636921682047,48.28618466490431L155.8634550600935,27.704890582806563z" style="fill:rgb(229,93,196)"/><path d="M-21.70565500834202,-163.02473656375452L-30.184744735165047,-164.289017901303L-48.93783150913546,-149.7762136468409z" style="fill:rgb(103,233,194)"/><path d="M166.25034753451968,2.850112259554567L160.45344651068118,-43.0265346427887L155.58779499740672,-19.294867661711155z" style="fill:rgb(239,141,187)"/><path d="M21.897944980649253,167.03239076523747L50.87043706988303,158.59188282268764L42.53456812342257,146.9461606618642z" style="fill:rgb(148,21,195)"/><path d="M-39.50185166070037,-164.26529505442699L-58.841763725649955,-149.16730616753907L-53.72536931292112,-149.8056645909978z" style="fill:rgb(93,234,188)"/><path d="M-160.32853491495584,-51.724348036072364L-141.80404907139226,-65.42239612368736L-144.14931855864512,-74.91643904093321zM-160.32853491495584,-51.724348036072364L-157.59552389887287,-39.308807138077725L-141.80404907139226,-65.42239612368736z" style="fill:rgb(25,166,193)"/><path d="M78.96810651492132,145.96771962116316L105.0118931120551,129.6693421133725L100.80813054404997,115.83117126577021z" style="fill:rgb(187,39,197)"/><path d="M-117.26045018579427,-118.2800450480079L-120.79496522339699,-110.65896744884643L-95.79237084156304,-122.02980694136208z" style="fill:rgb(55,207,195)"/><path d="M-143.84589908261253,-85.24439150387911L-144.14931855864512,-74.91643904093321L-122.66875535118768,-96.2255636452965z" style="fill:rgb(37,187,194)"/><path d="M-167.81111085918664,-12.581434327300576L-151.44298839395012,-28.27484857883506L-157.59552389887287,-39.308807138077725z" style="fill:rgb(19,140,194)"/><path d="M-112.156363708151,-125.88184082302817L-94.04834401936732,-125.93746630125682L-91.46706684921314,-129.86251620909695z" style="fill:rgb(57,211,192)"/><path d="M144.23845397419603,-64.22839989095786L143.84589908261248,-85.24439150387921L122.62812304696293,-103.2342293598962z" style="fill:rgb(217,183,198)"/><path d="M50.87043706988303,158.59188282268764L78.96810651492132,145.96771962116316L72.76464741109329,133.3390914906887z" style="fill:rgb(168,29,197)"/><path d="M57.8537933519011,-153.34490047734354L20.971752372997813,-162.23938282815095L27.857127952951554,-155.1752681930442z" style="fill:rgb(154,234,190)"/><path d="M-30.184744735165047,-164.289017901303L-53.72536931292112,-149.8056645909978L-48.93783150913546,-149.7762136468409z" style="fill:rgb(98,233,191)"/><path d="M-167.81111085918664,-12.581434327300576L-160.750442079112,0.8994821175039305L-151.44298839395012,-28.27484857883506z" style="fill:rgb(19,140,194)"/><path d="M-143.84589908261253,-85.24439150387911L-122.66875535118768,-96.2255636452965L-122.62811395007846,-103.2342293598961z" style="fill:rgb(37,187,194)"/><path d="M92.85580398254505,-133.48798575547298L57.8537933519011,-153.34490047734354L63.98465500716411,-142.3483444030743z" style="fill:rgb(178,224,191)"/><path d="M155.8634550600935,27.704890582806563L166.25034753451968,2.850112259554567L155.58779499740672,-19.294867661711155z" style="fill:rgb(231,124,200)"/><path d="M20.971752372997813,-162.23938282815095L-14.320094456256736,-160.48292016870312L-8.265105236094284,-156.70894572846444z" style="fill:rgb(129,236,193)"/><path d="M-14.320094456256736,-160.48292016870312L-21.70565500834202,-163.02473656375452L-44.62062206014533,-149.07405680063385z" style="fill:rgb(107,231,198)"/><path d="M155.58779499740672,-19.294867661711155L160.45344651068118,-43.0265346427887L144.23845397419603,-64.22839989095786z" style="fill:rgb(228,155,200)"/><path d="M-117.26045018579427,-118.2800450480079L-95.79237084156304,-122.02980694136208L-94.04834401936732,-125.93746630125682z" style="fill:rgb(55,207,195)"/><path d="M-164.5280989796016,29.28671818983467L-149.65717904339056,12.327292849303769L-160.750442079112,0.8994821175039305z" style="fill:rgb(22,112,197)"/><path d="M21.897944980649253,167.03239076523747L42.53456812342257,146.9461606618642L11.412850129729552,156.09273772969917z" style="fill:rgb(148,21,195)"/><path d="M105.0118931120551,129.6693421133725L125.49265444706347,95.19373839880502L100.80813054404997,115.83117126577021z" style="fill:rgb(205,51,194)"/><path d="M-48.30866886503864,160.03275117391837L-19.282522135395784,160.47033733279568L-31.786984879261635,143.93811443837413z" style="fill:rgb(100,25,198)"/><path d="M27.857127952951554,-155.1752681930442L20.971752372997813,-162.23938282815095L-8.265105236094284,-156.70894572846444z" style="fill:rgb(134,232,199)"/><path d="M-21.70565500834202,-163.02473656375452L-48.93783150913546,-149.7762136468409L-44.62062206014533,-149.07405680063385z" style="fill:rgb(103,233,194)"/><path d="M63.98465500716411,-142.3483444030743L57.8537933519011,-153.34490047734354L27.857127952951554,-155.1752681930442z" style="fill:rgb(158,227,200)"/><path d="M-120.79496522339699,-110.65896744884643L-122.62811395007846,-103.2342293598961L-96.63930930286631,-118.25435725672023z" style="fill:rgb(54,203,199)"/><path d="M-164.5280989796016,29.28671818983467L-152.21909157889647,42.61066962676825L-149.65717904339056,12.327292849303769z" style="fill:rgb(22,112,197)"/><path d="M122.62812304696293,-103.2342293598962L92.85580398254505,-133.48798575547298L96.63929001516247,-118.25434699305198z" style="fill:rgb(200,207,194)"/><path d="M-48.30866886503864,160.03275117391837L-31.786984879261635,143.93811443837413L-61.7689848297638,143.7051578185645z" style="fill:rgb(100,25,198)"/><path d="M50.87043706988303,158.59188282268764L72.76464741109329,133.3390914906887L42.53456812342257,146.9461606618642z" style="fill:rgb(168,29,197)"/><path d="M78.96810651492132,145.96771962116316L100.80813054404997,115.83117126577021L72.76464741109329,133.3390914906887z" style="fill:rgb(187,39,197)"/><path d="M-120.79496522339699,-110.65896744884643L-96.63930930286631,-118.25435725672023L-95.79237084156304,-122.02980694136208z" style="fill:rgb(54,203,199)"/><path d="M96.63929001516247,-118.25434699305198L92.85580398254505,-133.48798575547298L63.98465500716411,-142.3483444030743z" style="fill:rgb(181,214,203)"/><path d="M-8.265105236094284,-156.70894572846444L-14.320094456256736,-160.48292016870312L-40.904817304901485,-147.71297529063565z" style="fill:rgb(110,229,202)"/><path d="M-149.68239583019323,70.6503672412185L-135.52546460035896,53.11491486182537L-152.21909157889647,42.61066962676825z" style="fill:rgb(32,85,201)"/><path d="M-69.46562596923042,-145.9950563517498L-74.67128558425578,-143.55594331735702L-66.75048576124294,-129.57603578819175z" style="fill:rgb(81,218,203)"/><path d="M-74.67128558425578,-143.55594331735702L-79.6089288899361,-140.63593525055532L-66.75048576124294,-129.57603578819175z" style="fill:rgb(79,217,203)"/><path d="M145.8542185003689,72.34727526744494L155.8634550600935,27.704890582806563L139.84464859584475,52.41246966459036z" style="fill:rgb(229,93,196)"/><path d="M-64.13889131773557,-147.8839030256202L-69.46562596923042,-145.9950563517498L-66.75048576124294,-129.57603578819175z" style="fill:rgb(83,219,203)"/><path d="M-79.6089288899361,-140.63593525055532L-84.1385667960423,-137.31697520538194L-66.75048576124294,-129.57603578819175z" style="fill:rgb(78,216,203)"/><path d="M125.49265444706347,95.19373839880502L145.8542185003689,72.34727526744494L139.84464859584475,52.41246966459036z" style="fill:rgb(215,78,205)"/><path d="M-14.320094456256736,-160.48292016870312L-44.62062206014533,-149.07405680063385L-40.904817304901485,-147.71297529063565z" style="fill:rgb(107,231,198)"/><path d="M-144.14931855864512,-74.91643904093321L-141.80404907139226,-65.42239612368736L-120.87276184985487,-89.85124743129829zM-144.14931855864512,-74.91643904093321L-120.87276184985487,-89.85124743129829L-122.66875535118768,-96.2255636452965z" style="fill:rgb(38,181,201)"/><path d="M-58.841763725649955,-149.16730616753907L-64.13889131773557,-147.8839030256202L-66.75048576124294,-129.57603578819175z" style="fill:rgb(84,219,204)"/><path d="M-149.68239583019323,70.6503672412185L-131.7733742577056,82.45667715797278L-135.52546460035896,53.11491486182537z" style="fill:rgb(32,85,201)"/><path d="M-84.1385667960423,-137.31697520538194L-88.13022866275638,-133.6919029141504L-66.75048576124294,-129.57603578819175z" style="fill:rgb(76,215,204)"/><path d="M-157.59552389887287,-39.308807138077725L-136.78616255664934,-57.08197373302209L-141.80404907139226,-65.42239612368736z" style="fill:rgb(29,158,202)"/><path d="M144.23845397419603,-64.22839989095786L122.62812304696293,-103.2342293598962L122.58643298973982,-83.9289022188057z" style="fill:rgb(217,183,198)"/><path d="M-53.72536931292112,-149.8056645909978L-58.841763725649955,-149.16730616753907L-66.75048576124294,-129.57603578819175z" style="fill:rgb(86,220,204)"/><path d="M-122.62811395007846,-103.2342293598961L-122.66875535118768,-96.2255636452965L-96.55375097907732,-114.72468965877408z" style="fill:rgb(54,199,203)"/><path d="M27.857127952951554,-155.1752681930442L-8.265105236094284,-156.70894572846444L-3.7510887968069806,-151.78523009266547z" style="fill:rgb(134,232,199)"/><path d="M-88.81995977232313,138.72652309419288L-61.7689848297638,143.7051578185645L-73.69400051148047,121.73959823587118z" style="fill:rgb(73,40,203)"/><path d="M-88.13022866275638,-133.6919029141504L-91.46706684921314,-129.86251620909695L-66.75048576124294,-129.57603578819175z" style="fill:rgb(75,214,205)"/><path d="M-157.59552389887287,-39.308807138077725L-151.44298839395012,-28.27484857883506L-136.78616255664934,-57.08197373302209z" style="fill:rgb(29,158,202)"/><path d="M-123.77328112487191,108.15952416459292L-109.50504181812263,90.65338002481516L-131.7733742577056,82.45667715797278z" style="fill:rgb(49,60,203)"/><path d="M-88.81995977232313,138.72652309419288L-73.69400051148047,121.73959823587118L-100.66992130377423,117.10032066214667z" style="fill:rgb(73,40,203)"/><path d="M63.98465500716411,-142.3483444030743L27.857127952951554,-155.1752681930442L32.307259990122944,-146.56401357563027z" style="fill:rgb(158,227,200)"/><path d="M-123.77328112487191,108.15952416459292L-100.66992130377423,117.10032066214667L-109.50504181812263,90.65338002481516z" style="fill:rgb(49,60,203)"/><path d="M-48.93783150913546,-149.7762136468409L-53.72536931292112,-149.8056645909978L-66.75048576124294,-129.57603578819175z" style="fill:rgb(88,220,205)"/><path d="M-122.62811395007846,-103.2342293598961L-96.55375097907732,-114.72468965877408L-96.63930930286631,-118.25435725672023z" style="fill:rgb(54,199,203)"/><path d="M-91.46706684921314,-129.86251620909695L-94.04834401936732,-125.93746630125682L-66.75048576124294,-129.57603578819175z" style="fill:rgb(74,212,206)"/><path d="M122.58643298973982,-83.9289022188057L122.62812304696293,-103.2342293598962L96.63929001516247,-118.25434699305198z" style="fill:rgb(200,194,207)"/><path d="M155.8634550600935,27.704890582806563L155.58779499740672,-19.294867661711155L144.96871017668235,5.288621800898684z" style="fill:rgb(231,124,200)"/><path d="M-8.265105236094284,-156.70894572846444L-40.904817304901485,-147.71297529063565L-37.90714257113603,-145.72584370350725z" style="fill:rgb(110,229,202)"/><path d="M155.58779499740672,-19.294867661711155L144.23845397419603,-64.22839989095786L139.20762451635676,-41.60283828355469z" style="fill:rgb(228,155,200)"/><path d="M-19.282522135395784,160.47033733279568L11.412850129729552,156.09273772969917L4.636329512724135e-14,139.22233158266627z" style="fill:rgb(120,28,206)"/><path d="M32.307259990122944,-146.56401357563027L27.857127952951554,-155.1752681930442L-3.7510887968069806,-151.78523009266547z" style="fill:rgb(137,226,206)"/><path d="M-44.62062206014533,-149.07405680063385L-48.93783150913546,-149.7762136468409L-66.75048576124294,-129.57603578819175z" style="fill:rgb(90,219,206)"/><path d="M-160.750442079112,0.8994821175039305L-141.90859050650636,-19.03931478928627L-151.44298839395012,-28.27484857883506z" style="fill:rgb(27,132,206)"/><path d="M-3.7510887968069806,-151.78523009266547L-8.265105236094284,-156.70894572846444L-37.90714257113603,-145.72584370350725z" style="fill:rgb(113,226,206)"/><path d="M-94.04834401936732,-125.93746630125682L-95.79237084156304,-122.02980694136208L-66.75048576124294,-129.57603578819175z" style="fill:rgb(73,211,207)"/><path d="M-160.750442079112,0.8994821175039305L-149.65717904339056,12.327292849303769L-141.90859050650636,-19.03931478928627z" style="fill:rgb(27,132,206)"/><path d="M-40.904817304901485,-147.71297529063565L-44.62062206014533,-149.07405680063385L-66.75048576124294,-129.57603578819175z" style="fill:rgb(91,219,208)"/><path d="M96.63929001516247,-118.25434699305198L63.98465500716411,-142.3483444030743L66.75048516476058,-129.57602532316045z" style="fill:rgb(181,214,203)"/><path d="M-95.79237084156304,-122.02980694136208L-96.63930930286631,-118.25435725672023L-66.75048576124294,-129.57603578819175z" style="fill:rgb(73,209,208)"/><path d="M-122.66875535118768,-96.2255636452965L-120.87276184985487,-89.85124743129829L-95.52688686529294,-111.5498476737631z" style="fill:rgb(55,195,207)"/><path d="M139.84464859584475,52.41246966459036L155.8634550600935,27.704890582806563L144.96871017668235,5.288621800898684z" style="fill:rgb(221,108,211)"/><path d="M-122.66875535118768,-96.2255636452965L-95.52688686529294,-111.5498476737631L-96.55375097907732,-114.72468965877408z" style="fill:rgb(55,195,207)"/><path d="M100.80813054404997,115.83117126577021L125.49265444706347,95.19373839880502L118.61285154721544,75.94680881269447z" style="fill:rgb(199,64,211)"/><path d="M139.20762451635676,-41.60283828355469L144.23845397419603,-64.22839989095786L122.58643298973982,-83.9289022188057z" style="fill:rgb(214,169,211)"/><path d="M66.75048516476058,-129.57602532316045L63.98465500716411,-142.3483444030743L32.307259990122944,-146.56401357563027z" style="fill:rgb(160,219,209)"/><path d="M-141.80404907139226,-65.42239612368736L-117.24935900751497,-84.32123139232537L-120.87276184985487,-89.85124743129829z" style="fill:rgb(41,176,208)"/><path d="M-19.282522135395784,160.47033733279568L4.636329512724135e-14,139.22233158266627L-31.786984879261635,143.93811443837413z" style="fill:rgb(120,28,206)"/><path d="M-3.7510887968069806,-151.78523009266547L-37.90714257113603,-145.72584370350725L-35.7260822617991,-143.16465879738456z" style="fill:rgb(113,226,206)"/><path d="M-37.90714257113603,-145.72584370350725L-40.904817304901485,-147.71297529063565L-66.75048576124294,-129.57603578819175z" style="fill:rgb(92,218,209)"/><path d="M-141.80404907139226,-65.42239612368736L-136.78616255664934,-57.08197373302209L-117.24935900751497,-84.32123139232537z" style="fill:rgb(41,176,208)"/><path d="M125.49265444706347,95.19373839880502L139.84464859584475,52.41246966459036L118.61285154721544,75.94680881269447z" style="fill:rgb(215,78,205)"/><path d="M-96.63930930286631,-118.25435725672023L-96.55375097907732,-114.72468965877408L-66.75048576124294,-129.57603578819175z" style="fill:rgb(73,208,209)"/><path d="M144.96871017668235,5.288621800898684L155.58779499740672,-19.294867661711155L139.20762451635676,-41.60283828355469z" style="fill:rgb(221,139,213)"/><path d="M32.307259990122944,-146.56401357563027L-3.7510887968069806,-151.78523009266547L-0.9528191001942653,-145.8326261990172z" style="fill:rgb(137,226,206)"/><path d="M-152.21909157889647,42.61066962676825L-134.689906850356,21.203667050769376L-149.65717904339056,12.327292849303769z" style="fill:rgb(33,105,210)"/><path d="M11.412850129729552,156.09273772969917L42.53456812342257,146.9461606618642L32.294357639751055,129.61101444849845z" style="fill:rgb(141,33,212)"/><path d="M-0.9528191001942653,-145.8326261990172L-3.7510887968069806,-151.78523009266547L-35.7260822617991,-143.16465879738456z" style="fill:rgb(115,223,210)"/><path d="M-35.7260822617991,-143.16465879738456L-37.90714257113603,-145.72584370350725L-66.75048576124294,-129.57603578819175z" style="fill:rgb(93,217,210)"/><path d="M-96.55375097907732,-114.72468965877408L-95.52688686529294,-111.5498476737631L-66.75048576124294,-129.57603578819175z" style="fill:rgb(73,207,211)"/><path d="M-152.21909157889647,42.61066962676825L-135.52546460035896,53.11491486182537L-134.689906850356,21.203667050769376z" style="fill:rgb(33,105,210)"/><path d="M-151.44298839395012,-28.27484857883506L-129.15711275890246,-50.200789407393465L-136.78616255664934,-57.08197373302209z" style="fill:rgb(35,152,212)"/><path d="M122.58643298973982,-83.9289022188057L96.63929001516247,-118.25434699305198L96.15424051746147,-101.24707482273494z" style="fill:rgb(200,194,207)"/><path d="M72.76464741109329,133.3390914906887L100.80813054404997,115.83117126577021L92.89816285104357,97.27380127063651z" style="fill:rgb(181,51,214)"/><path d="M-120.87276184985487,-89.85124743129829L-93.57811280286673,-108.83090865631813L-95.52688686529294,-111.5498476737631z" style="fill:rgb(57,192,211)"/><path d="M96.15424051746147,-101.24707482273494L96.63929001516247,-118.25434699305198L66.75048516476058,-129.57602532316045z" style="fill:rgb(181,203,214)"/><path d="M42.53456812342257,146.9461606618642L72.76464741109329,133.3390914906887L63.71415479278141,115.43161245360754z" style="fill:rgb(162,41,214)"/><path d="M-120.87276184985487,-89.85124743129829L-117.24935900751497,-84.32123139232537L-93.57811280286673,-108.83090865631813z" style="fill:rgb(57,192,211)"/><path d="M-0.9528191001942653,-145.8326261990172L-35.7260822617991,-143.16465879738456L-34.43805378371408,-140.0999217254283z" style="fill:rgb(115,223,210)"/><path d="M-34.43805378371408,-140.0999217254283L-35.7260822617991,-143.16465879738456L-66.75048576124294,-129.57603578819175z" style="fill:rgb(94,216,212)"/><path d="M34.0939338890487,-136.61942744627612L32.307259990122944,-146.56401357563027L-0.9528191001942653,-145.8326261990172z" style="fill:rgb(138,220,213)"/><path d="M66.75048516476058,-129.57602532316045L32.307259990122944,-146.56401357563027L34.0939338890487,-136.61942744627612z" style="fill:rgb(160,219,209)"/><path d="M-151.44298839395012,-28.27484857883506L-141.90859050650636,-19.03931478928627L-129.15711275890246,-50.200789407393465z" style="fill:rgb(35,152,212)"/><path d="M-61.7689848297638,143.7051578185645L-31.786984879261635,143.93811443837413L-43.73618089286816,121.67384002177978z" style="fill:rgb(92,40,213)"/><path d="M-95.52688686529294,-111.5498476737631L-93.57811280286673,-108.83090865631813L-66.75048576124294,-129.57603578819175z" style="fill:rgb(74,206,212)"/><path d="M-131.7733742577056,82.45667715797278L-114.79893735205789,60.25801277741037L-135.52546460035896,53.11491486182537z" style="fill:rgb(46,80,214)"/><path d="M11.412850129729552,156.09273772969917L32.294357639751055,129.61101444849845L4.636329512724135e-14,139.22233158266627z" style="fill:rgb(141,33,212)"/><path d="M-61.7689848297638,143.7051578185645L-43.73618089286816,121.67384002177978L-73.69400051148047,121.73959823587118z" style="fill:rgb(92,40,213)"/><path d="M-34.09393388904879,-136.6194274462761L-34.43805378371408,-140.0999217254283L-66.75048576124294,-129.57603578819175z" style="fill:rgb(94,215,213)"/><path d="M-136.78616255664934,-57.08197373302209L-111.86618984126147,-79.82920380758262L-117.24935900751497,-84.32123139232537z" style="fill:rgb(46,171,215)"/><path d="M100.80813054404997,115.83117126577021L118.61285154721544,75.94680881269447L92.89816285104357,97.27380127063651z" style="fill:rgb(199,64,211)"/><path d="M-131.7733742577056,82.45667715797278L-109.50504181812263,90.65338002481516L-114.79893735205789,60.25801277741037z" style="fill:rgb(46,80,214)"/><path d="M-93.57811280286673,-108.83090865631813L-90.75585500785547,-106.65738269031083L-66.75048576124294,-129.57603578819175z" style="fill:rgb(75,205,214)"/><path d="M-0.0000066110935678676,-139.01033889608476L-0.9528191001942653,-145.8326261990172L-34.43805378371408,-140.0999217254283z" style="fill:rgb(116,219,215)"/><path d="M139.20762451635676,-41.60283828355469L122.58643298973982,-83.9289022188057L117.5025096878345,-63.14878497531075z" style="fill:rgb(214,169,211)"/><path d="M-117.24935900751497,-84.32123139232537L-90.75585500785547,-106.65738269031083L-93.57811280286673,-108.83090865631813z" style="fill:rgb(59,189,216)"/><path d="M139.84464859584475,52.41246966459036L144.96871017668235,5.288621800898684L128.719274011627,29.787415706615928z" style="fill:rgb(221,108,211)"/><path d="M-100.66992130377423,117.10032066214667L-73.69400051148047,121.73959823587118L-83.48668179109704,94.72323188450046zM-100.66992130377423,117.10032066214667L-83.48668179109704,94.72323188450046L-109.50504181812263,90.65338002481516z" style="fill:rgb(67,57,215)"/><path d="M34.0939338890487,-136.61942744627612L-0.9528191001942653,-145.8326261990172L-0.0000066110935678676,-139.01033889608476z" style="fill:rgb(138,220,213)"/><path d="M-149.65717904339056,12.327292849303769L-129.15630936056053,-11.9922838860106L-141.90859050650636,-19.03931478928627z" style="fill:rgb(36,126,217)"/><path d="M-136.78616255664934,-57.08197373302209L-129.15711275890246,-50.200789407393465L-111.86618984126147,-79.82920380758262z" style="fill:rgb(46,171,215)"/><path d="M-0.0000066110935678676,-139.01033889608476L-34.43805378371408,-140.0999217254283L-34.09393388904879,-136.6194274462761z" style="fill:rgb(116,219,215)"/><path d="M-34.71606068828815,-132.82631426159634L-34.09393388904879,-136.6194274462761L-66.75048576124294,-129.57603578819175z" style="fill:rgb(94,213,215)"/><path d="M118.61285154721544,75.94680881269447L139.84464859584475,52.41246966459036L128.719274011627,29.787415706615928z" style="fill:rgb(208,93,220)"/><path d="M-90.75585500785547,-106.65738269031083L-87.13743498479735,-105.10373053079978L-66.75048576124294,-129.57603578819175z" style="fill:rgb(76,204,215)"/><path d="M117.5025096878345,-63.14878497531075L122.58643298973982,-83.9289022188057L96.15424051746147,-101.24707482273494z" style="fill:rgb(197,181,219)"/><path d="M-117.24935900751497,-84.32123139232537L-111.86618984126147,-79.82920380758262L-90.75585500785547,-106.65738269031083z" style="fill:rgb(59,189,216)"/><path d="M144.96871017668235,5.288621800898684L139.20762451635676,-41.60283828355469L128.63229466649537,-18.13416157650533z" style="fill:rgb(221,139,213)"/><path d="M42.53456812342257,146.9461606618642L63.71415479278141,115.43161245360754L32.294357639751055,129.61101444849845z" style="fill:rgb(162,41,214)"/><path d="M65.90538519549683,-115.36857074379549L66.75048516476058,-129.57602532316045L34.0939338890487,-136.61942744627612z" style="fill:rgb(160,209,218)"/><path d="M72.76464741109329,133.3390914906887L92.89816285104357,97.27380127063651L63.71415479278141,115.43161245360754z" style="fill:rgb(181,51,214)"/><path d="M96.15424051746147,-101.24707482273494L66.75048516476058,-129.57602532316045L65.90538519549683,-115.36857074379549z" style="fill:rgb(181,203,214)"/><path d="M-149.65717904339056,12.327292849303769L-134.689906850356,21.203667050769376L-129.15630936056053,-11.9922838860106z" style="fill:rgb(36,126,217)"/><path d="M-36.29615535151365,-128.8362393010364L-34.71606068828815,-132.82631426159634L-66.75048576124294,-129.57603578819175z" style="fill:rgb(94,212,216)"/><path d="M-87.13743498479735,-105.10373053079978L-82.82782338612573,-104.2260423816249L-66.75048576124294,-129.57603578819175z" style="fill:rgb(78,203,216)"/><path d="M-111.86618984126147,-79.82920380758262L-87.13743498479735,-105.10373053079978L-90.75585500785547,-106.65738269031083z" style="fill:rgb(63,187,220)"/><path d="M-0.9680577996046564,-131.5141004056395L-0.0000066110935678676,-139.01033889608476L-34.09393388904879,-136.6194274462761z" style="fill:rgb(116,215,219)"/><path d="M-38.794158868891074,-124.77395371471704L-36.29615535151365,-128.8362393010364L-66.75048576124294,-129.57603578819175z" style="fill:rgb(93,211,217)"/><path d="M33.06378683408116,-125.61661291150614L34.0939338890487,-136.61942744627612L-0.0000066110935678676,-139.01033889608476z" style="fill:rgb(138,213,220)"/><path d="M-82.82782338612573,-104.2260423816249L-77.95715473849275,-104.05927232840534L-66.75048576124294,-129.57603578819175z" style="fill:rgb(79,203,217)"/><path d="M-0.9680577996046564,-131.5141004056395L-34.09393388904879,-136.6194274462761L-34.71606068828815,-132.82631426159634z" style="fill:rgb(116,215,219)"/><path d="M-141.90859050650636,-19.03931478928627L-119.07368814379055,-45.05573693485098L-129.15711275890246,-50.200789407393465z" style="fill:rgb(43,147,220)"/><path d="M128.63229466649537,-18.13416157650533L139.20762451635676,-41.60283828355469L117.5025096878345,-63.14878497531075z" style="fill:rgb(207,153,223)"/><path d="M128.719274011627,29.787415706615928L144.96871017668235,5.288621800898684L128.63229466649537,-18.13416157650533z" style="fill:rgb(211,123,223)"/><path d="M-31.786984879261635,143.93811443837413L4.636329512724135e-14,139.22233158266627L-11.920431331832145,116.71318367391805z" style="fill:rgb(113,42,221)"/><path d="M-42.13845485234429,-120.7690491122958L-38.794158868891074,-124.77395371471704L-66.75048576124294,-129.57603578819175z" style="fill:rgb(92,209,218)"/><path d="M-129.15711275890246,-50.200789407393465L-104.85268913193084,-76.54394613506214L-111.86618984126147,-79.82920380758262z" style="fill:rgb(52,167,222)"/><path d="M-77.95715473849275,-104.05927232840534L-72.67690381330873,-104.61510394183999L-66.75048576124294,-129.57603578819175z" style="fill:rgb(81,203,218)"/><path d="M65.90538519549683,-115.36857074379549L34.0939338890487,-136.61942744627612L33.06378683408116,-125.61661291150614z" style="fill:rgb(160,209,218)"/><path d="M-111.86618984126147,-79.82920380758262L-104.85268913193084,-76.54394613506214L-87.13743498479735,-105.10373053079978z" style="fill:rgb(63,187,220)"/><path d="M-135.52546460035896,53.11491486182537L-116.18192110851427,27.082641570459778L-134.689906850356,21.203667050769376z" style="fill:rgb(46,100,222)"/><path d="M-46.22742347994306,-116.95134499613883L-42.13845485234429,-120.7690491122958L-66.75048576124294,-129.57603578819175z" style="fill:rgb(91,208,219)"/><path d="M-141.90859050650636,-19.03931478928627L-129.15630936056053,-11.9922838860106L-119.07368814379055,-45.05573693485098z" style="fill:rgb(43,147,220)"/><path d="M-72.67690381330873,-104.61510394183999L-67.15494279852982,-105.88074332471601L-66.75048576124294,-129.57603578819175z" style="fill:rgb(83,203,219)"/><path d="M33.06378683408116,-125.61661291150614L-0.0000066110935678676,-139.01033889608476L-0.9680577996046564,-131.5141004056395z" style="fill:rgb(138,213,220)"/><path d="M-104.85268913193084,-76.54394613506214L-82.82782338612573,-104.2260423816249L-87.13743498479735,-105.10373053079978z" style="fill:rgb(67,185,223)"/><path d="M-50.93249864817813,-113.4458835172587L-46.22742347994306,-116.95134499613883L-66.75048576124294,-129.57603578819175z" style="fill:rgb(90,206,219)"/><path d="M-67.15494279852982,-105.88074332471601L-61.569521684050514,-107.81874862967399L-66.75048576124294,-129.57603578819175z" style="fill:rgb(84,204,219)"/><path d="M-31.786984879261635,143.93811443837413L-11.920431331832145,116.71318367391805L-43.73618089286816,121.67384002177978z" style="fill:rgb(113,42,221)"/><path d="M117.5025096878345,-63.14878497531075L96.15424051746147,-101.24707482273494L91.19579568058295,-82.9720903533863z" style="fill:rgb(197,181,219)"/><path d="M-135.52546460035896,53.11491486182537L-114.79893735205789,60.25801277741037L-116.18192110851427,27.082641570459778z" style="fill:rgb(46,100,222)"/><path d="M91.19579568058295,-82.9720903533863L96.15424051746147,-101.24707482273494L65.90538519549683,-115.36857074379549z" style="fill:rgb(178,191,224)"/><path d="M-56.10254468663208,-110.36800847274675L-50.93249864817813,-113.4458835172587L-66.75048576124294,-129.57603578819175z" style="fill:rgb(88,205,220)"/><path d="M-61.569521684050514,-107.81874862967399L-56.10254468663208,-110.36800847274675L-66.75048576124294,-129.57603578819175z" style="fill:rgb(86,204,220)"/><path d="M92.89816285104357,97.27380127063651L118.61285154721544,75.94680881269447L107.26765016645996,53.18554316379226z" style="fill:rgb(192,78,226)"/><path d="M-129.15711275890246,-50.200789407393465L-119.07368814379055,-45.05573693485098L-104.85268913193084,-76.54394613506214z" style="fill:rgb(52,167,222)"/><path d="M-3.870088519762829,-123.57203545177897L-34.71606068828815,-132.82631426159634L-36.29615535151365,-128.8362393010364z" style="fill:rgb(115,210,223)"/><path d="M118.61285154721544,75.94680881269447L128.719274011627,29.787415706615928L107.26765016645996,53.18554316379226z" style="fill:rgb(208,93,220)"/><path d="M-3.870088519762829,-123.57203545177897L-0.9680577996046564,-131.5141004056395L-34.71606068828815,-132.82631426159634z" style="fill:rgb(115,210,223)"/><path d="M-109.50504181812263,90.65338002481516L-90.61209360684845,63.59362754700851L-114.79893735205789,60.25801277741037z" style="fill:rgb(63,77,225)"/><path d="M-96.40081552388365,-74.60032001937172L-77.95715473849275,-104.05927232840534L-82.82782338612573,-104.2260423816249z" style="fill:rgb(72,184,227)"/><path d="M-104.85268913193084,-76.54394613506214L-96.40081552388365,-74.60032001937172L-82.82782338612573,-104.2260423816249z" style="fill:rgb(67,185,223)"/><path d="M4.636329512724135e-14,139.22233158266627L32.294357639751055,129.61101444849845L20.454446347665368,106.92241827672132z" style="fill:rgb(134,48,227)"/><path d="M-73.69400051148047,121.73959823587118L-43.73618089286816,121.67384002177978L-54.574478858775,94.30205499119486z" style="fill:rgb(86,57,225)"/><path d="M-109.50504181812263,90.65338002481516L-83.48668179109704,94.72323188450046L-90.61209360684845,63.59362754700851z" style="fill:rgb(63,77,225)"/><path d="M-8.650795011207888,-115.43820355678713L-36.29615535151365,-128.8362393010364L-38.794158868891074,-124.77395371471704z" style="fill:rgb(113,206,226)"/><path d="M-134.689906850356,21.203667050769376L-113.4900053206811,-7.472818771150252L-129.15630936056053,-11.9922838860106z" style="fill:rgb(48,122,227)"/><path d="M-73.69400051148047,121.73959823587118L-54.574478858775,94.30205499119486L-83.48668179109704,94.72323188450046z" style="fill:rgb(86,57,225)"/><path d="M61.32023069820963,-100.15209950652141L65.90538519549683,-115.36857074379549L33.06378683408116,-125.61661291150614z" style="fill:rgb(158,200,227)"/><path d="M29.15533484787389,-113.88833886276159L33.06378683408116,-125.61661291150614L-0.9680577996046564,-131.5141004056395z" style="fill:rgb(137,206,226)"/><path d="M128.63229466649537,-18.13416157650533L117.5025096878345,-63.14878497531075L107.29603100311195,-41.593106826376676z" style="fill:rgb(207,153,223)"/><path d="M-119.07368814379055,-45.05573693485098L-96.40081552388365,-74.60032001937172L-104.85268913193084,-76.54394613506214z" style="fill:rgb(58,165,228)"/><path d="M63.71415479278141,115.43161245360754L92.89816285104357,97.27380127063651L81.35403409985958,74.45549575940325z" style="fill:rgb(174,66,229)"/><path d="M128.719274011627,29.787415706615928L128.63229466649537,-18.13416157650533L112.65043286972396,5.2906535602776845z" style="fill:rgb(211,123,223)"/><path d="M-8.650795011207888,-115.43820355678713L-3.870088519762829,-123.57203545177897L-36.29615535151365,-128.8362393010364z" style="fill:rgb(113,206,226)"/><path d="M91.19579568058295,-82.9720903533863L65.90538519549683,-115.36857074379549L61.32023069820963,-100.15209950652141z" style="fill:rgb(178,191,224)"/><path d="M32.294357639751055,129.61101444849845L63.71415479278141,115.43161245360754L52.002083036189994,92.63809032461336z" style="fill:rgb(154,56,229)"/><path d="M29.15533484787389,-113.88833886276159L-0.9680577996046564,-131.5141004056395L-3.870088519762829,-123.57203545177897z" style="fill:rgb(137,206,226)"/><path d="M107.29603100311195,-41.593106826376676L117.5025096878345,-63.14878497531075L91.19579568058295,-82.9720903533863z" style="fill:rgb(191,167,230)"/><path d="M-86.76245009573003,-74.0907893446249L-72.67690381330873,-104.61510394183999L-77.95715473849275,-104.05927232840534z" style="fill:rgb(77,184,229)"/><path d="M-129.15630936056053,-11.9922838860106L-106.79387052331488,-41.878683074647434L-119.07368814379055,-45.05573693485098z" style="fill:rgb(52,144,229)"/><path d="M-134.689906850356,21.203667050769376L-116.18192110851427,27.082641570459778L-113.4900053206811,-7.472818771150252z" style="fill:rgb(48,122,227)"/><path d="M-15.183549038205715,-107.3836006691154L-38.794158868891074,-124.77395371471704L-42.13845485234429,-120.7690491122958z" style="fill:rgb(110,202,229)"/><path d="M4.636329512724135e-14,139.22233158266627L20.454446347665368,106.92241827672132L-11.920431331832145,116.71318367391805z" style="fill:rgb(134,48,227)"/><path d="M-96.40081552388365,-74.60032001937172L-86.76245009573003,-74.0907893446249L-77.95715473849275,-104.05927232840534z" style="fill:rgb(72,184,227)"/><path d="M92.89816285104357,97.27380127063651L107.26765016645996,53.18554316379226L81.35403409985958,74.45549575940325z" style="fill:rgb(192,78,226)"/><path d="M107.26765016645996,53.18554316379226L128.719274011627,29.787415706615928L112.65043286972396,5.2906535602776845z" style="fill:rgb(198,108,232)"/><path d="M61.32023069820963,-100.15209950652141L33.06378683408116,-125.61661291150614L29.15533484787389,-113.88833886276159z" style="fill:rgb(158,200,227)"/><path d="M-119.07368814379055,-45.05573693485098L-106.79387052331488,-41.878683074647434L-96.40081552388365,-74.60032001937172z" style="fill:rgb(58,165,228)"/><path d="M-76.24290567449366,-75.05813355472661L-67.15494279852982,-105.88074332471601L-72.67690381330873,-104.61510394183999z" style="fill:rgb(82,185,231)"/><path d="M-129.15630936056053,-11.9922838860106L-113.4900053206811,-7.472818771150252L-106.79387052331488,-41.878683074647434z" style="fill:rgb(52,144,229)"/><path d="M-23.271354079231894,-99.68512445762094L-42.13845485234429,-120.7690491122958L-46.22742347994306,-116.95134499613883z" style="fill:rgb(107,198,231)"/><path d="M112.65043286972396,5.2906535602776845L128.63229466649537,-18.13416157650533L107.29603100311195,-41.593106826376676z" style="fill:rgb(198,139,232)"/><path d="M-15.183549038205715,-107.3836006691154L-8.650795011207888,-115.43820355678713L-38.794158868891074,-124.77395371471704z" style="fill:rgb(110,202,229)"/><path d="M-65.19054450391964,-77.49039172121647L-61.569521684050514,-107.81874862967399L-67.15494279852982,-105.88074332471601z" style="fill:rgb(88,186,233)"/><path d="M-32.652185517557626,-92.61306381015036L-46.22742347994306,-116.95134499613883L-50.93249864817813,-113.4458835172587z" style="fill:rgb(103,194,233)"/><path d="M32.294357639751055,129.61101444849845L52.002083036189994,92.63809032461336L20.454446347665368,106.92241827672132z" style="fill:rgb(154,56,229)"/><path d="M-114.79893735205789,60.25801277741037L-94.65294363485931,29.60670939540424L-116.18192110851427,27.082641570459778z" style="fill:rgb(61,98,232)"/><path d="M-106.79387052331488,-41.878683074647434L-86.76245009573003,-74.0907893446249L-96.40081552388365,-74.60032001937172z" style="fill:rgb(66,164,233)"/><path d="M63.71415479278141,115.43161245360754L81.35403409985958,74.45549575940325L52.002083036189994,92.63809032461336z" style="fill:rgb(174,66,229)"/><path d="M-86.76245009573003,-74.0907893446249L-76.24290567449366,-75.05813355472661L-72.67690381330873,-104.61510394183999z" style="fill:rgb(77,184,229)"/><path d="M-53.98270109392903,-81.3185859212477L-56.10254468663208,-110.36800847274675L-61.569521684050514,-107.81874862967399z" style="fill:rgb(93,188,233)"/><path d="M-43.00884391429613,-86.41803094752922L-50.93249864817813,-113.4458835172587L-56.10254468663208,-110.36800847274675z" style="fill:rgb(98,191,233)"/><path d="M22.413559889704278,-101.81658661842614L29.15533484787389,-113.88833886276159L-3.870088519762829,-123.57203545177897z" style="fill:rgb(134,199,232)"/><path d="M81.73183777486462,-64.03925726685895L91.19579568058295,-82.9720903533863L61.32023069820963,-100.15209950652141z" style="fill:rgb(173,180,234)"/><path d="M22.413559889704278,-101.81658661842614L-3.870088519762829,-123.57203545177897L-8.650795011207888,-115.43820355678713z" style="fill:rgb(134,199,232)"/><path d="M107.29603100311195,-41.593106826376676L91.19579568058295,-82.9720903533863L81.73183777486462,-64.03925726685895z" style="fill:rgb(191,167,230)"/><path d="M-43.73618089286816,121.67384002177978L-11.920431331832145,116.71318367391805L-23.846181018824133,89.22901475519164z" style="fill:rgb(106,59,233)"/><path d="M-114.79893735205789,60.25801277741037L-90.61209360684845,63.59362754700851L-94.65294363485931,29.60670939540424z" style="fill:rgb(61,98,232)"/><path d="M-23.271354079231894,-99.68512445762094L-15.183549038205715,-107.3836006691154L-42.13845485234429,-120.7690491122958z" style="fill:rgb(107,198,231)"/><path d="M53.008094882826185,-84.42904264228116L61.32023069820963,-100.15209950652141L29.15533484787389,-113.88833886276159z" style="fill:rgb(154,190,234)"/><path d="M-76.24290567449366,-75.05813355472661L-65.19054450391964,-77.49039172121647L-67.15494279852982,-105.88074332471601z" style="fill:rgb(82,185,231)"/><path d="M-43.73618089286816,121.67384002177978L-23.846181018824133,89.22901475519164L-54.574478858775,94.30205499119486z" style="fill:rgb(106,59,233)"/><path d="M-83.48668179109704,94.72323188450046L-63.75786820487525,62.81733261739297L-90.61209360684845,63.59362754700851z" style="fill:rgb(81,76,234)"/><path d="M-106.79387052331488,-41.878683074647434L-92.67697607897802,-40.83978998210838L-86.76245009573003,-74.0907893446249z" style="fill:rgb(66,164,233)"/><path d="M-116.18192110851427,27.082641570459778L-95.35857017144697,-5.742626634039771L-113.4900053206811,-7.472818771150252z" style="fill:rgb(60,120,235)"/><path d="M-113.4900053206811,-7.472818771150252L-92.67697607897802,-40.83978998210838L-106.79387052331488,-41.878683074647434z" style="fill:rgb(62,142,236)"/><path d="M107.26765016645996,53.18554316379226L112.65043286972396,5.2906535602776845L91.6906737702637,27.709685338673722z" style="fill:rgb(198,108,232)"/><path d="M-32.652185517557626,-92.61306381015036L-23.271354079231894,-99.68512445762094L-46.22742347994306,-116.95134499613883z" style="fill:rgb(103,194,233)"/><path d="M-83.48668179109704,94.72323188450046L-54.574478858775,94.30205499119486L-63.75786820487525,62.81733261739297z" style="fill:rgb(81,76,234)"/><path d="M81.35403409985958,74.45549575940325L107.26765016645996,53.18554316379226L91.6906737702637,27.709685338673722z" style="fill:rgb(182,95,237)"/><path d="M-65.19054450391964,-77.49039172121647L-53.98270109392903,-81.3185859212477L-61.569521684050514,-107.81874862967399z" style="fill:rgb(88,186,233)"/><path d="M112.65043286972396,5.2906535602776845L107.29603100311195,-41.593106826376676L92.122994178492,-20.065663301577406z" style="fill:rgb(198,139,232)"/><path d="M-43.00884391429613,-86.41803094752922L-32.652185517557626,-92.61306381015036L-50.93249864817813,-113.4458835172587z" style="fill:rgb(98,191,233)"/><path d="M-92.67697607897802,-40.83978998210838L-76.24290567449366,-75.05813355472661L-86.76245009573003,-74.0907893446249z" style="fill:rgb(74,163,237)"/><path d="M53.008094882826185,-84.42904264228116L29.15533484787389,-113.88833886276159L22.413559889704278,-101.81658661842614z" style="fill:rgb(154,190,234)"/><path d="M81.73183777486462,-64.03925726685895L61.32023069820963,-100.15209950652141L53.008094882826185,-84.42904264228116z" style="fill:rgb(173,180,234)"/><path d="M-53.98270109392903,-81.3185859212477L-43.00884391429613,-86.41803094752922L-56.10254468663208,-110.36800847274675z" style="fill:rgb(93,188,233)"/><path d="M12.99945053343106,-89.81881764442227L-8.650795011207888,-115.43820355678713L-15.183549038205715,-107.3836006691154z" style="fill:rgb(129,193,236)"/><path d="M-116.18192110851427,27.082641570459778L-94.65294363485931,29.60670939540424L-95.35857017144697,-5.742626634039771z" style="fill:rgb(60,120,235)"/><path d="M92.122994178492,-20.065663301577406L107.29603100311195,-41.593106826376676L81.73183777486462,-64.03925726685895z" style="fill:rgb(183,154,239)"/><path d="M12.99945053343106,-89.81881764442227L22.413559889704278,-101.81658661842614L-8.650795011207888,-115.43820355678713z" style="fill:rgb(129,193,236)"/><path d="M-113.4900053206811,-7.472818771150252L-95.35857017144697,-5.742626634039771L-92.67697607897802,-40.83978998210838z" style="fill:rgb(62,142,236)"/><path d="M-11.920431331832145,116.71318367391805L20.454446347665368,106.92241827672132L7.454393528440796,79.58339513690511z" style="fill:rgb(126,65,238)"/><path d="M91.6906737702637,27.709685338673722L112.65043286972396,5.2906535602776845L92.122994178492,-20.065663301577406z" style="fill:rgb(185,125,240)"/><path d="M52.002083036189994,92.63809032461336L81.35403409985958,74.45549575940325L66.47684143695494,48.14941246585861z" style="fill:rgb(165,83,240)"/><path d="M-77.17630477545198,-42.03219962240272L-65.19054450391964,-77.49039172121647L-76.24290567449366,-75.05813355472661z" style="fill:rgb(83,165,241)"/><path d="M-92.67697607897802,-40.83978998210838L-77.17630477545198,-42.03219962240272L-76.24290567449366,-75.05813355472661z" style="fill:rgb(74,163,237)"/><path d="M20.454446347665368,106.92241827672132L52.002083036189994,92.63809032461336L37.99954771623578,65.69871163522434z" style="fill:rgb(146,72,241)"/><path d="M-11.920431331832145,116.71318367391805L7.454393528440796,79.58339513690511L-23.846181018824133,89.22901475519164z" style="fill:rgb(126,65,238)"/><path d="M1.1925621626439384,-78.32948317916726L-15.183549038205715,-107.3836006691154L-23.271354079231894,-99.68512445762094z" style="fill:rgb(123,186,240)"/><path d="M81.35403409985958,74.45549575940325L91.6906737702637,27.709685338673722L66.47684143695494,48.14941246585861z" style="fill:rgb(182,95,237)"/><path d="M-90.61209360684845,63.59362754700851L-70.80544346381397,28.54325532483822L-94.65294363485931,29.60670939540424z" style="fill:rgb(77,98,240)"/><path d="M67.93304166077662,-45.14116153287261L81.73183777486462,-64.03925726685895L53.008094882826185,-84.42904264228116z" style="fill:rgb(166,168,241)"/><path d="M41.14347918948972,-68.76034791375535L53.008094882826185,-84.42904264228116L22.413559889704278,-101.81658661842614z" style="fill:rgb(148,181,241)"/><path d="M-95.35857017144697,-5.742626634039771L-77.17630477545198,-42.03219962240272L-92.67697607897802,-40.83978998210838z" style="fill:rgb(73,142,242)"/><path d="M92.122994178492,-20.065663301577406L81.73183777486462,-64.03925726685895L67.93304166077662,-45.14116153287261z" style="fill:rgb(183,154,239)"/><path d="M1.1925621626439384,-78.32948317916726L12.99945053343106,-89.81881764442227L-15.183549038205715,-107.3836006691154z" style="fill:rgb(123,186,240)"/><path d="M-90.61209360684845,63.59362754700851L-63.75786820487525,62.81733261739297L-70.80544346381397,28.54325532483822z" style="fill:rgb(77,98,240)"/><path d="M-60.823676200002495,-45.46020842363623L-53.98270109392903,-81.3185859212477L-65.19054450391964,-77.49039172121647z" style="fill:rgb(92,167,243)"/><path d="M41.14347918948972,-68.76034791375535L22.413559889704278,-101.81658661842614L12.99945053343106,-89.81881764442227z" style="fill:rgb(148,181,241)"/><path d="M-54.574478858775,94.30205499119486L-23.846181018824133,89.22901475519164L-35.22534010790684,57.80868163252286z" style="fill:rgb(99,79,242)"/><path d="M-12.615237432902225,-67.77767444860805L-23.271354079231894,-99.68512445762094L-32.652185517557626,-92.61306381015036z" style="fill:rgb(117,180,243)"/><path d="M-94.65294363485931,29.60670939540424L-75.34980194869031,-6.960629576900834L-95.35857017144697,-5.742626634039771z" style="fill:rgb(74,119,243)"/><path d="M-54.574478858775,94.30205499119486L-35.22534010790684,57.80868163252286L-63.75786820487525,62.81733261739297z" style="fill:rgb(99,79,242)"/><path d="M20.454446347665368,106.92241827672132L37.99954771623578,65.69871163522434L7.454393528440796,79.58339513690511z" style="fill:rgb(146,72,241)"/><path d="M52.002083036189994,92.63809032461336L66.47684143695494,48.14941246585861L37.99954771623578,65.69871163522434z" style="fill:rgb(165,83,240)"/><path d="M-77.17630477545198,-42.03219962240272L-60.823676200002495,-45.46020842363623L-65.19054450391964,-77.49039172121647z" style="fill:rgb(83,165,241)"/><path d="M-44.205957601277156,-51.03262710967775L-43.00884391429613,-86.41803094752922L-53.98270109392903,-81.3185859212477z" style="fill:rgb(101,170,244)"/><path d="M-27.935233501142484,-58.563096099477285L-32.652185517557626,-92.61306381015036L-43.00884391429613,-86.41803094752922z" style="fill:rgb(109,175,244)"/><path d="M91.6906737702637,27.709685338673722L92.122994178492,-20.065663301577406L72.40056401333398,0.5658027086802168z" style="fill:rgb(185,125,240)"/><path d="M67.93304166077662,-45.14116153287261L53.008094882826185,-84.42904264228116L41.14347918948972,-68.76034791375535z" style="fill:rgb(166,168,241)"/><path d="M-95.35857017144697,-5.742626634039771L-75.34980194869031,-6.960629576900834L-77.17630477545198,-42.03219962240272z" style="fill:rgb(73,142,242)"/><path d="M-12.615237432902225,-67.77767444860805L1.1925621626439384,-78.32948317916726L-23.271354079231894,-99.68512445762094z" style="fill:rgb(117,180,243)"/><path d="M-94.65294363485931,29.60670939540424L-70.80544346381397,28.54325532483822L-75.34980194869031,-6.960629576900834z" style="fill:rgb(74,119,243)"/><path d="M66.47684143695494,48.14941246585861L91.6906737702637,27.709685338673722L72.40056401333398,0.5658027086802168z" style="fill:rgb(171,112,246)"/><path d="M72.40056401333398,0.5658027086802168L92.122994178492,-20.065663301577406L67.93304166077662,-45.14116153287261z" style="fill:rgb(172,141,246)"/><path d="M-60.823676200002495,-45.46020842363623L-44.205957601277156,-51.03262710967775L-53.98270109392903,-81.3185859212477z" style="fill:rgb(92,167,243)"/><path d="M-75.34980194869031,-6.960629576900834L-60.823676200002495,-45.46020842363623L-77.17630477545198,-42.03219962240272z" style="fill:rgb(85,143,246)"/><path d="M-27.935233501142484,-58.563096099477285L-12.615237432902225,-67.77767444860805L-32.652185517557626,-92.61306381015036z" style="fill:rgb(109,175,244)"/><path d="M26.070899973530953,-53.738963439042074L41.14347918948972,-68.76034791375535L12.99945053343106,-89.81881764442227z" style="fill:rgb(140,172,246)"/><path d="M-44.205957601277156,-51.03262710967775L-27.935233501142484,-58.563096099477285L-43.00884391429613,-86.41803094752922z" style="fill:rgb(101,170,244)"/><path d="M26.070899973530953,-53.738963439042074L12.99945053343106,-89.81881764442227L1.1925621626439384,-78.32948317916726z" style="fill:rgb(140,172,246)"/><path d="M-23.846181018824133,89.22901475519164L7.454393528440796,79.58339513690511L-6.149742188659374,48.66073214949307z" style="fill:rgb(118,84,247)"/><path d="M-63.75786820487525,62.81733261739297L-45.50230866674503,23.816357463867103L-70.80544346381397,28.54325532483822z" style="fill:rgb(93,100,247)"/><path d="M50.18946182692601,-27.01907372781021L67.93304166077662,-45.14116153287261L41.14347918948972,-68.76034791375535z" style="fill:rgb(156,157,247)"/><path d="M-23.846181018824133,89.22901475519164L-6.149742188659374,48.66073214949307L-35.22534010790684,57.80868163252286z" style="fill:rgb(118,84,247)"/><path d="M-63.75786820487525,62.81733261739297L-35.22534010790684,57.80868163252286L-45.50230866674503,23.816357463867103z" style="fill:rgb(93,100,247)"/><path d="M37.99954771623578,65.69871163522434L66.47684143695494,48.14941246585861L48.808096189481304,19.424848801871693z" style="fill:rgb(155,100,249)"/><path d="M72.40056401333398,0.5658027086802168L67.93304166077662,-45.14116153287261L50.18946182692601,-27.01907372781021z" style="fill:rgb(172,141,246)"/><path d="M66.47684143695494,48.14941246585861L72.40056401333398,0.5658027086802168L48.808096189481304,19.424848801871693z" style="fill:rgb(171,112,246)"/><path d="M-70.80544346381397,28.54325532483822L-54.170765336748815,-11.161766497398101L-75.34980194869031,-6.960629576900834z" style="fill:rgb(89,121,249)"/><path d="M-75.34980194869031,-6.960629576900834L-54.170765336748815,-11.161766497398101L-60.823676200002495,-45.46020842363623z" style="fill:rgb(85,143,246)"/><path d="M7.454393528440796,79.58339513690511L37.99954771623578,65.69871163522434L22.26001373653556,35.69033842130318z" style="fill:rgb(137,91,249)"/><path d="M-54.170765336748815,-11.161766497398101L-44.205957601277156,-51.03262710967775L-60.823676200002495,-45.46020842363623z" style="fill:rgb(97,146,250)"/><path d="M50.18946182692601,-27.01907372781021L41.14347918948972,-68.76034791375535L26.070899973530953,-53.738963439042074z" style="fill:rgb(156,157,247)"/><path d="M8.299793111971768,-39.95645002253782L1.1925621626439384,-78.32948317916726L-12.615237432902225,-67.77767444860805z" style="fill:rgb(131,164,249)"/><path d="M-70.80544346381397,28.54325532483822L-45.50230866674503,23.816357463867103L-54.170765336748815,-11.161766497398101z" style="fill:rgb(89,121,249)"/><path d="M8.299793111971768,-39.95645002253782L26.070899973530953,-53.738963439042074L1.1925621626439384,-78.32948317916726z" style="fill:rgb(131,164,249)"/><path d="M48.808096189481304,19.424848801871693L72.40056401333398,0.5658027086802168L50.18946182692601,-27.01907372781021z" style="fill:rgb(158,129,251)"/><path d="M7.454393528440796,79.58339513690511L22.26001373653556,35.69033842130318L-6.149742188659374,48.66073214949307z" style="fill:rgb(137,91,249)"/><path d="M37.99954771623578,65.69871163522434L48.808096189481304,19.424848801871693L22.26001373653556,35.69033842130318z" style="fill:rgb(155,100,249)"/><path d="M-32.61466409304127,-18.243911495484937L-27.935233501142484,-58.563096099477285L-44.205957601277156,-51.03262710967775z" style="fill:rgb(109,151,251)"/><path d="M-11.51622651263309,-27.96562608989346L-12.615237432902225,-67.77767444860805L-27.935233501142484,-58.563096099477285z" style="fill:rgb(120,157,251)"/><path d="M-54.170765336748815,-11.161766497398101L-32.61466409304127,-18.243911495484937L-44.205957601277156,-51.03262710967775z" style="fill:rgb(97,146,250)"/><path d="M-35.22534010790684,57.80868163252286L-19.724500318894865,15.528028552527017L-45.50230866674503,23.816357463867103z" style="fill:rgb(111,104,251)"/><path d="M29.108129212201202,-10.418096323967545L50.18946182692601,-27.01907372781021L26.070899973530953,-53.738963439042074z" style="fill:rgb(145,147,252)"/><path d="M-35.22534010790684,57.80868163252286L-6.149742188659374,48.66073214949307L-19.724500318894865,15.528028552527017z" style="fill:rgb(111,104,251)"/><path d="M-11.51622651263309,-27.96562608989346L8.299793111971768,-39.95645002253782L-12.615237432902225,-67.77767444860805z" style="fill:rgb(120,157,251)"/><path d="M-45.50230866674503,23.816357463867103L-32.61466409304127,-18.243911495484937L-54.170765336748815,-11.161766497398101z" style="fill:rgb(104,125,252)"/><path d="M48.808096189481304,19.424848801871693L50.18946182692601,-27.01907372781021L29.108129212201202,-10.418096323967545z" style="fill:rgb(158,129,251)"/><path d="M-32.61466409304127,-18.243911495484937L-11.51622651263309,-27.96562608989346L-27.935233501142484,-58.563096099477285z" style="fill:rgb(109,151,251)"/><path d="M29.108129212201202,-10.418096323967545L26.070899973530953,-53.738963439042074L8.299793111971768,-39.95645002253782z" style="fill:rgb(145,147,252)"/><path d="M22.26001373653556,35.69033842130318L48.808096189481304,19.424848801871693L29.108129212201202,-10.418096323967545z" style="fill:rgb(144,119,253)"/><path d="M-45.50230866674503,23.816357463867103L-19.724500318894865,15.528028552527017L-32.61466409304127,-18.243911495484937z" style="fill:rgb(104,125,252)"/><path d="M-6.149742188659374,48.66073214949307L22.26001373653556,35.69033842130318L5.488381491539163,3.9640602884234095zM-6.149742188659374,48.66073214949307L5.488381491539163,3.9640602884234095L-19.724500318894865,15.528028552527017z" style="fill:rgb(127,111,253)"/><path d="M-19.724500318894865,15.528028552527017L-11.51622651263309,-27.96562608989346L-32.61466409304127,-18.243911495484937z" style="fill:rgb(118,131,254)"/><path d="M22.26001373653556,35.69033842130318L29.108129212201202,-10.418096323967545L5.488381491539163,3.9640602884234095z" style="fill:rgb(144,119,253)"/><path d="M5.488381491539163,3.9640602884234095L29.108129212201202,-10.418096323967545L8.299793111971768,-39.95645002253782zM5.488381491539163,3.9640602884234095L8.299793111971768,-39.95645002253782L-11.51622651263309,-27.96562608989346z" style="fill:rgb(132,138,254)"/><path d="M-19.724500318894865,15.528028552527017L5.488381491539163,3.9640602884234095L-11.51622651263309,-27.96562608989346z" style="fill:rgb(118,131,254)"/></svg>
