<?xml version="1.0" encoding="UTF-8"?>
<!-- Generated by jsxcad -->
<!DOCTYPE svg PUBLIC "-//W3C//DTD SVG 1.1 Tiny//EN" "http://www.w3.org/Graphics/SVG/1.1/DTD/svg11-tiny.dtd">
<svg baseProfile="tiny" height="10.000000000000007mm" width="10.000000000000007mm" viewBox="0 0 10.000000000000007 10.000000000000007" version="1.1" stroke="black" stroke-width=".1" fill="none" xmlns="http://www.w3.org/2000/svg">
<path fill="#ffc0cb" stroke="#ffc0cb" d="M4.37333 9.96057 L4.68605 9.99013 L5 10 L5.31395 9.99013 L5.62667 9.96057 L5.93691 9.91144 L6.24345 9.84292 L6.54508 9.75528 L6.84062 9.64888 L7.1289 9.52414 L7.40877 9.38153 L7.67913 9.22164 L7.93893 9.04508 L8.18712 8.85257 L8.42274 8.64484 L8.64484 8.42274 L8.85257 8.18712 L9.04508 7.93893 L9.22164 7.67913 L9.38153 7.40877 L9.52414 7.1289 L9.64888 6.84062 L9.75528 6.54508 L9.84292 6.24345 L9.91144 5.93691 L9.96057 5.62667 L9.99013 5.31395 L10 5 L9.99013 4.68605 L9.96057 4.37333 L9.91144 4.06309 L9.84292 3.75655 L9.75528 3.45492 L9.64888 3.15938 L9.52414 2.8711 L9.38153 2.59123 L9.22164 2.32087 L9.04508 2.06107 L8.85257 1.81288 L8.64484 1.57726 L8.42274 1.35516 L8.18712 1.14743 L7.93893 0.95492 L7.67913 0.77836 L7.40877 0.61847 L7.1289 0.47586 L6.84062 0.35112 L6.54508 0.24472 L6.24345 0.15708 L5.93691 0.08856 L5.62667 0.03943 L5.31395 0.00987 L5 0 L4.68605 0.00987 L4.37333 0.03943 L4.06309 0.08856 L3.75655 0.15708 L3.45492 0.24472 L3.15938 0.35112 L2.8711 0.47586 L2.59123 0.61847 L2.32087 0.77836 L2.06107 0.95492 L1.81288 1.14743 L1.57726 1.35516 L1.35516 1.57726 L1.14743 1.81288 L0.95492 2.06107 L0.77836 2.32087 L0.61847 2.59123 L0.47586 2.8711 L0.35112 3.15938 L0.24472 3.45492 L0.15708 3.75655 L0.08856 4.06309 L0.03943 4.37333 L0.00987 4.68605 L0 5 L0.00987 5.31395 L0.03943 5.62667 L0.08856 5.93691 L0.15708 6.24345 L0.24472 6.54508 L0.35112 6.84062 L0.47586 7.1289 L0.61847 7.40877 L0.77836 7.67913 L0.95492 7.93893 L1.14743 8.18712 L1.35516 8.42274 L1.57726 8.64484 L1.81288 8.85257 L2.06107 9.04508 L2.32087 9.22164 L2.59123 9.38153 L2.8711 9.52414 L3.15938 9.64888 L3.45492 9.75528 L3.75655 9.84292 L4.06309 9.91144 z"/>
</svg>